<svg xmlns="http://www.w3.org/2000/svg" viewBox="0 0 3000 4000" width="100%" height="100%" preserveAspectRatio="none">
  <path d="M 0,4000 L 3000,4000 L 3000.0,2205.3 L 2996.2,2178.9 L 2992.5,2170.9 L 2988.8,2167.0 L 2985.0,2162.2 L 2981.2,2152.6 L 2977.5,2185.7 L 2973.8,2157.4 L 2970.0,2169.8 L 2966.2,2164.6 L 2962.5,2203.3 L 2958.8,2200.0 L 2955.0,2223.7 L 2951.2,2232.8 L 2947.5,2229.6 L 2943.8,2256.6 L 2940.0,2289.4 L 2936.2,2277.4 L 2932.5,2288.6 L 2928.8,2288.2 L 2925.0,2266.6 L 2921.2,2263.5 L 2917.5,2240.4 L 2913.8,2195.1 L 2910.0,2195.4 L 2906.2,2210.2 L 2902.5,2171.2 L 2898.8,2173.8 L 2895.0,2182.4 L 2891.2,2203.1 L 2887.5,2181.0 L 2883.8,2185.8 L 2880.0,2173.5 L 2876.2,2180.5 L 2872.5,2185.8 L 2868.8,2203.4 L 2865.0,2167.7 L 2861.2,2171.4 L 2857.5,2175.9 L 2853.8,2153.9 L 2850.0,2165.2 L 2846.2,2169.2 L 2842.5,2162.8 L 2838.8,2195.6 L 2835.0,2171.4 L 2831.2,2218.1 L 2827.5,2212.3 L 2823.8,2229.7 L 2820.0,2189.1 L 2816.2,2181.3 L 2812.5,2190.0 L 2808.8,2186.7 L 2805.0,2165.0 L 2801.2,2142.4 L 2797.5,2133.5 L 2793.8,2123.7 L 2790.0,2104.5 L 2786.2,2080.0 L 2782.5,2067.5 L 2778.8,2065.5 L 2775.0,2083.1 L 2771.2,2076.3 L 2767.5,2076.3 L 2763.8,2078.7 L 2760.0,2104.5 L 2756.2,2124.9 L 2752.5,2105.8 L 2748.8,2104.5 L 2745.0,2106.6 L 2741.2,2144.1 L 2737.5,2118.3 L 2733.8,2143.4 L 2730.0,2128.5 L 2726.2,2140.1 L 2722.5,2135.6 L 2718.8,2115.5 L 2715.0,2107.3 L 2711.2,2106.0 L 2707.5,2102.9 L 2703.8,2112.4 L 2700.0,2081.6 L 2696.2,2113.4 L 2692.5,2080.4 L 2688.8,2102.4 L 2685.0,2082.9 L 2681.2,2110.8 L 2677.5,2093.9 L 2673.8,2096.4 L 2670.0,2078.1 L 2666.2,2082.9 L 2662.5,2084.8 L 2658.8,2051.5 L 2655.0,2051.7 L 2651.2,2077.9 L 2647.5,2086.1 L 2643.8,2120.6 L 2640.0,2117.7 L 2636.2,2148.6 L 2632.5,2152.7 L 2628.8,2159.4 L 2625.0,2185.0 L 2621.2,2224.5 L 2617.5,2206.1 L 2613.8,2205.5 L 2610.0,2183.6 L 2606.2,2198.1 L 2602.5,2188.0 L 2598.8,2145.0 L 2595.0,2143.7 L 2591.2,2163.0 L 2587.5,2160.8 L 2583.8,2168.8 L 2580.0,2156.7 L 2576.2,2164.3 L 2572.5,2200.4 L 2568.8,2198.9 L 2565.0,2201.1 L 2561.2,2206.7 L 2557.5,2222.1 L 2553.8,2236.6 L 2550.0,2246.5 L 2546.2,2240.9 L 2542.5,2256.0 L 2538.8,2237.9 L 2535.0,2264.2 L 2531.2,2275.2 L 2527.5,2289.0 L 2523.8,2295.0 L 2520.0,2338.8 L 2516.2,2329.4 L 2512.5,2347.7 L 2508.8,2357.1 L 2505.0,2353.0 L 2501.2,2367.2 L 2497.5,2371.1 L 2493.8,2370.8 L 2490.0,2349.3 L 2486.2,2343.8 L 2482.5,2338.9 L 2478.8,2350.7 L 2475.0,2347.6 L 2471.2,2330.1 L 2467.5,2352.0 L 2463.8,2323.5 L 2460.0,2364.6 L 2456.2,2373.9 L 2452.5,2367.4 L 2448.8,2392.9 L 2445.0,2392.2 L 2441.2,2434.5 L 2437.5,2425.8 L 2433.8,2446.5 L 2430.0,2454.7 L 2426.2,2470.3 L 2422.5,2467.8 L 2418.8,2482.0 L 2415.0,2496.2 L 2411.2,2487.2 L 2407.5,2486.8 L 2403.8,2464.1 L 2400.0,2486.1 L 2396.2,2476.1 L 2392.5,2479.7 L 2388.8,2492.8 L 2385.0,2460.3 L 2381.2,2493.0 L 2377.5,2484.2 L 2373.8,2468.3 L 2370.0,2466.0 L 2366.2,2488.0 L 2362.5,2462.3 L 2358.8,2465.0 L 2355.0,2460.3 L 2351.2,2458.6 L 2347.5,2434.8 L 2343.8,2450.2 L 2340.0,2447.7 L 2336.2,2440.1 L 2332.5,2470.3 L 2328.8,2465.6 L 2325.0,2473.0 L 2321.2,2491.2 L 2317.5,2487.0 L 2313.8,2493.6 L 2310.0,2533.4 L 2306.2,2541.5 L 2302.5,2537.5 L 2298.8,2507.5 L 2295.0,2478.4 L 2291.2,2480.9 L 2287.5,2459.0 L 2283.8,2438.8 L 2280.0,2423.1 L 2276.2,2397.2 L 2272.5,2386.2 L 2268.8,2396.3 L 2265.0,2392.6 L 2261.2,2403.8 L 2257.5,2373.8 L 2253.8,2392.0 L 2250.0,2376.7 L 2246.2,2365.0 L 2242.5,2357.1 L 2238.8,2353.3 L 2235.0,2365.9 L 2231.2,2352.7 L 2227.5,2360.8 L 2223.8,2341.1 L 2220.0,2341.4 L 2216.2,2347.5 L 2212.5,2333.8 L 2208.8,2343.4 L 2205.0,2347.1 L 2201.2,2373.2 L 2197.5,2364.0 L 2193.8,2364.8 L 2190.0,2325.9 L 2186.2,2339.1 L 2182.5,2314.3 L 2178.8,2312.0 L 2175.0,2279.0 L 2171.2,2246.6 L 2167.5,2234.0 L 2163.8,2202.3 L 2160.0,2204.3 L 2156.2,2200.4 L 2152.5,2183.8 L 2148.8,2177.9 L 2145.0,2163.6 L 2141.2,2168.7 L 2137.5,2161.3 L 2133.8,2166.4 L 2130.0,2189.6 L 2126.2,2197.9 L 2122.5,2200.3 L 2118.8,2206.1 L 2115.0,2196.1 L 2111.2,2178.0 L 2107.5,2199.4 L 2103.8,2177.5 L 2100.0,2175.7 L 2096.2,2168.7 L 2092.5,2178.4 L 2088.8,2144.8 L 2085.0,2132.3 L 2081.2,2155.7 L 2077.5,2142.8 L 2073.8,2114.0 L 2070.0,2118.6 L 2066.2,2137.3 L 2062.5,2119.0 L 2058.8,2104.0 L 2055.0,2088.1 L 2051.2,2116.3 L 2047.5,2096.4 L 2043.8,2076.7 L 2040.0,2080.5 L 2036.2,2042.0 L 2032.5,2069.0 L 2028.8,2055.5 L 2025.0,2062.5 L 2021.2,2056.0 L 2017.5,2080.8 L 2013.8,2105.3 L 2010.0,2094.6 L 2006.2,2134.8 L 2002.5,2126.3 L 1998.8,2153.8 L 1995.0,2168.5 L 1991.2,2166.2 L 1987.5,2142.2 L 1983.8,2147.6 L 1980.0,2144.4 L 1976.2,2102.6 L 1972.5,2091.9 L 1968.8,2095.6 L 1965.0,2079.3 L 1961.2,2094.9 L 1957.5,2076.3 L 1953.8,2100.2 L 1950.0,2067.8 L 1946.2,2097.5 L 1942.5,2083.6 L 1938.8,2117.7 L 1935.0,2121.3 L 1931.2,2124.1 L 1927.5,2123.8 L 1923.8,2105.8 L 1920.0,2137.2 L 1916.2,2133.5 L 1912.5,2114.0 L 1908.8,2144.3 L 1905.0,2145.4 L 1901.2,2151.6 L 1897.5,2149.8 L 1893.8,2173.5 L 1890.0,2197.6 L 1886.2,2227.5 L 1882.5,2210.2 L 1878.8,2220.1 L 1875.0,2214.3 L 1871.2,2228.0 L 1867.5,2190.0 L 1863.8,2213.8 L 1860.0,2187.8 L 1856.2,2203.1 L 1852.5,2156.1 L 1848.8,2177.2 L 1845.0,2159.0 L 1841.2,2168.1 L 1837.5,2158.5 L 1833.8,2149.0 L 1830.0,2181.8 L 1826.2,2179.3 L 1822.5,2170.5 L 1818.8,2197.5 L 1815.0,2202.1 L 1811.2,2207.5 L 1807.5,2209.7 L 1803.8,2230.2 L 1800.0,2224.8 L 1796.2,2236.6 L 1792.5,2265.0 L 1788.8,2252.3 L 1785.0,2261.6 L 1781.2,2269.0 L 1777.5,2262.4 L 1773.8,2243.0 L 1770.0,2243.6 L 1766.2,2216.9 L 1762.5,2236.9 L 1758.8,2242.3 L 1755.0,2225.4 L 1751.2,2233.2 L 1747.5,2209.4 L 1743.8,2206.5 L 1740.0,2212.2 L 1736.2,2210.4 L 1732.5,2190.6 L 1728.8,2192.2 L 1725.0,2162.1 L 1721.2,2152.7 L 1717.5,2165.3 L 1713.8,2159.1 L 1710.0,2131.9 L 1706.2,2150.8 L 1702.5,2175.6 L 1698.8,2180.0 L 1695.0,2178.7 L 1691.2,2200.5 L 1687.5,2179.9 L 1683.8,2217.5 L 1680.0,2206.7 L 1676.2,2223.3 L 1672.5,2203.8 L 1668.8,2181.5 L 1665.0,2147.2 L 1661.2,2139.9 L 1657.5,2115.1 L 1653.8,2087.3 L 1650.0,2090.8 L 1646.2,2069.7 L 1642.5,2048.9 L 1638.8,2051.1 L 1635.0,2027.7 L 1631.2,2035.8 L 1627.5,2023.4 L 1623.8,2025.3 L 1620.0,2032.6 L 1616.2,2041.2 L 1612.5,2016.8 L 1608.8,2008.7 L 1605.0,1997.6 L 1601.2,1995.7 L 1597.5,1973.1 L 1593.8,1970.7 L 1590.0,1975.7 L 1586.2,1959.9 L 1582.5,1953.8 L 1578.8,1955.0 L 1575.0,1983.3 L 1571.2,1977.4 L 1567.5,1988.9 L 1563.8,1957.2 L 1560.0,1932.4 L 1556.2,1922.5 L 1552.5,1922.1 L 1548.8,1904.3 L 1545.0,1869.6 L 1541.2,1864.4 L 1537.5,1832.3 L 1533.8,1819.8 L 1530.0,1791.0 L 1526.2,1777.4 L 1522.5,1755.5 L 1518.8,1761.9 L 1515.0,1747.4 L 1511.2,1770.8 L 1507.5,1748.6 L 1503.8,1763.3 L 1500.0,1784.1 L 1496.2,1783.8 L 1492.5,1786.1 L 1488.8,1782.2 L 1485.0,1785.4 L 1481.2,1760.7 L 1477.5,1751.8 L 1473.8,1750.7 L 1470.0,1765.2 L 1466.2,1744.0 L 1462.5,1739.0 L 1458.8,1730.3 L 1455.0,1721.6 L 1451.2,1716.4 L 1447.5,1697.7 L 1443.8,1696.0 L 1440.0,1680.0 L 1436.2,1680.7 L 1432.5,1664.0 L 1428.8,1683.5 L 1425.0,1649.4 L 1421.2,1638.4 L 1417.5,1641.9 L 1413.8,1619.5 L 1410.0,1630.6 L 1406.2,1593.2 L 1402.5,1587.1 L 1398.8,1618.7 L 1395.0,1589.1 L 1391.2,1601.3 L 1387.5,1632.0 L 1383.8,1650.3 L 1380.0,1660.9 L 1376.2,1665.2 L 1372.5,1698.4 L 1368.8,1690.8 L 1365.0,1705.3 L 1361.2,1714.4 L 1357.5,1703.6 L 1353.8,1657.2 L 1350.0,1667.9 L 1346.2,1629.2 L 1342.5,1623.7 L 1338.8,1621.0 L 1335.0,1621.2 L 1331.2,1617.8 L 1327.5,1600.4 L 1323.8,1601.1 L 1320.0,1629.2 L 1316.2,1628.5 L 1312.5,1634.4 L 1308.8,1630.9 L 1305.0,1654.5 L 1301.2,1640.3 L 1297.5,1662.7 L 1293.8,1646.0 L 1290.0,1635.3 L 1286.2,1663.7 L 1282.5,1673.6 L 1278.8,1668.3 L 1275.0,1670.3 L 1271.2,1666.5 L 1267.5,1703.6 L 1263.8,1698.8 L 1260.0,1745.0 L 1256.2,1750.7 L 1252.5,1749.3 L 1248.8,1761.0 L 1245.0,1757.8 L 1241.2,1761.8 L 1237.5,1733.9 L 1233.8,1735.5 L 1230.0,1700.8 L 1226.2,1694.4 L 1222.5,1696.4 L 1218.8,1685.7 L 1215.0,1671.8 L 1211.2,1682.0 L 1207.5,1668.4 L 1203.8,1696.6 L 1200.0,1685.4 L 1196.2,1700.5 L 1192.5,1727.9 L 1188.8,1731.4 L 1185.0,1749.6 L 1181.2,1742.7 L 1177.5,1758.6 L 1173.8,1758.9 L 1170.0,1765.9 L 1166.2,1767.1 L 1162.5,1766.3 L 1158.8,1791.3 L 1155.0,1780.7 L 1151.2,1795.8 L 1147.5,1777.4 L 1143.8,1787.7 L 1140.0,1779.3 L 1136.2,1781.7 L 1132.5,1773.5 L 1128.8,1750.8 L 1125.0,1755.6 L 1121.2,1764.8 L 1117.5,1778.7 L 1113.8,1768.9 L 1110.0,1758.5 L 1106.2,1755.8 L 1102.5,1723.3 L 1098.8,1716.0 L 1095.0,1697.3 L 1091.2,1691.9 L 1087.5,1713.8 L 1083.8,1719.3 L 1080.0,1712.0 L 1076.2,1715.3 L 1072.5,1709.3 L 1068.8,1720.4 L 1065.0,1762.1 L 1061.2,1763.9 L 1057.5,1760.9 L 1053.8,1764.2 L 1050.0,1764.9 L 1046.2,1791.7 L 1042.5,1772.3 L 1038.8,1735.0 L 1035.0,1702.8 L 1031.2,1683.3 L 1027.5,1659.6 L 1023.8,1656.3 L 1020.0,1650.1 L 1016.2,1660.9 L 1012.5,1619.8 L 1008.8,1639.7 L 1005.0,1615.2 L 1001.2,1627.3 L 997.5,1634.2 L 993.8,1614.3 L 990.0,1628.6 L 986.2,1597.0 L 982.5,1604.2 L 978.8,1594.3 L 975.0,1596.7 L 971.2,1575.2 L 967.5,1595.6 L 963.8,1564.4 L 960.0,1588.3 L 956.2,1590.4 L 952.5,1566.0 L 948.8,1597.3 L 945.0,1601.4 L 941.2,1610.2 L 937.5,1595.8 L 933.8,1586.3 L 930.0,1573.6 L 926.2,1566.2 L 922.5,1544.2 L 918.8,1523.6 L 915.0,1500.6 L 911.2,1465.4 L 907.5,1475.2 L 903.8,1430.0 L 900.0,1416.1 L 896.2,1407.0 L 892.5,1412.6 L 888.8,1435.1 L 885.0,1422.1 L 881.2,1439.7 L 877.5,1436.1 L 873.8,1439.5 L 870.0,1446.3 L 866.2,1426.5 L 862.5,1460.0 L 858.8,1452.3 L 855.0,1434.9 L 851.2,1427.4 L 847.5,1450.9 L 843.8,1445.6 L 840.0,1439.6 L 836.2,1427.0 L 832.5,1434.6 L 828.8,1404.7 L 825.0,1384.8 L 821.2,1404.3 L 817.5,1392.6 L 813.8,1401.6 L 810.0,1390.2 L 806.2,1385.6 L 802.5,1373.7 L 798.8,1377.9 L 795.0,1371.9 L 791.2,1356.1 L 787.5,1360.9 L 783.8,1334.0 L 780.0,1337.3 L 776.2,1348.2 L 772.5,1342.1 L 768.8,1341.3 L 765.0,1358.3 L 761.2,1354.3 L 757.5,1391.4 L 753.8,1381.9 L 750.0,1409.8 L 746.2,1432.9 L 742.5,1438.1 L 738.8,1473.6 L 735.0,1465.3 L 731.2,1445.4 L 727.5,1459.6 L 723.8,1440.3 L 720.0,1426.8 L 716.2,1408.9 L 712.5,1402.8 L 708.8,1402.7 L 705.0,1395.6 L 701.2,1395.3 L 697.5,1405.7 L 693.8,1417.0 L 690.0,1419.5 L 686.2,1419.5 L 682.5,1451.0 L 678.8,1458.7 L 675.0,1451.4 L 671.2,1452.2 L 667.5,1460.9 L 663.8,1464.8 L 660.0,1472.8 L 656.2,1492.7 L 652.5,1488.3 L 648.8,1508.3 L 645.0,1505.8 L 641.2,1517.2 L 637.5,1532.3 L 633.8,1571.3 L 630.0,1603.3 L 626.2,1606.8 L 622.5,1616.8 L 618.8,1605.1 L 615.0,1594.8 L 611.2,1619.1 L 607.5,1609.1 L 603.8,1595.4 L 600.0,1614.8 L 596.2,1607.4 L 592.5,1571.9 L 588.8,1564.8 L 585.0,1574.4 L 581.2,1567.8 L 577.5,1580.6 L 573.8,1600.6 L 570.0,1631.6 L 566.2,1635.7 L 562.5,1653.3 L 558.8,1666.1 L 555.0,1677.1 L 551.2,1673.5 L 547.5,1681.3 L 543.8,1702.7 L 540.0,1725.7 L 536.2,1738.2 L 532.5,1740.6 L 528.8,1741.9 L 525.0,1746.8 L 521.2,1735.7 L 517.5,1740.8 L 513.8,1735.7 L 510.0,1719.7 L 506.2,1750.8 L 502.5,1756.4 L 498.8,1757.2 L 495.0,1744.0 L 491.2,1750.8 L 487.5,1730.4 L 483.8,1762.4 L 480.0,1734.2 L 476.2,1719.0 L 472.5,1743.6 L 468.8,1705.4 L 465.0,1726.0 L 461.2,1722.2 L 457.5,1737.1 L 453.8,1730.3 L 450.0,1746.7 L 446.2,1732.3 L 442.5,1753.7 L 438.8,1790.6 L 435.0,1800.4 L 431.2,1792.9 L 427.5,1807.1 L 423.8,1817.0 L 420.0,1821.4 L 416.2,1833.5 L 412.5,1792.2 L 408.8,1774.3 L 405.0,1780.8 L 401.2,1742.8 L 397.5,1751.4 L 393.8,1741.4 L 390.0,1731.4 L 386.2,1703.2 L 382.5,1723.6 L 378.8,1715.8 L 375.0,1704.6 L 371.2,1720.8 L 367.5,1705.3 L 363.8,1729.2 L 360.0,1715.2 L 356.2,1705.5 L 352.5,1704.4 L 348.8,1724.4 L 345.0,1723.1 L 341.2,1703.8 L 337.5,1712.0 L 333.8,1709.4 L 330.0,1703.4 L 326.2,1692.5 L 322.5,1726.5 L 318.8,1729.1 L 315.0,1755.6 L 311.2,1728.5 L 307.5,1743.2 L 303.8,1748.4 L 300.0,1700.4 L 296.2,1691.4 L 292.5,1685.5 L 288.8,1680.4 L 285.0,1680.6 L 281.2,1628.9 L 277.5,1654.1 L 273.8,1618.1 L 270.0,1607.9 L 266.2,1594.4 L 262.5,1591.3 L 258.8,1616.0 L 255.0,1610.3 L 251.2,1623.5 L 247.5,1622.0 L 243.8,1625.2 L 240.0,1652.0 L 236.2,1657.0 L 232.5,1657.0 L 228.8,1664.4 L 225.0,1661.0 L 221.2,1643.8 L 217.5,1646.8 L 213.8,1646.2 L 210.0,1668.8 L 206.2,1649.6 L 202.5,1650.4 L 198.8,1640.9 L 195.0,1649.2 L 191.2,1629.6 L 187.5,1627.7 L 183.8,1662.5 L 180.0,1629.6 L 176.2,1629.2 L 172.5,1663.8 L 168.8,1652.5 L 165.0,1637.9 L 161.2,1619.3 L 157.5,1636.7 L 153.8,1611.7 L 150.0,1616.9 L 146.2,1627.1 L 142.5,1613.7 L 138.8,1619.0 L 135.0,1647.1 L 131.2,1668.2 L 127.5,1678.6 L 123.8,1687.0 L 120.0,1736.6 L 116.2,1749.6 L 112.5,1749.0 L 108.8,1781.9 L 105.0,1788.7 L 101.2,1762.6 L 97.5,1775.3 L 93.8,1758.5 L 90.0,1747.1 L 86.2,1739.0 L 82.5,1739.9 L 78.8,1737.9 L 75.0,1741.0 L 71.2,1742.2 L 67.5,1753.2 L 63.8,1758.7 L 60.0,1762.2 L 56.2,1804.5 L 52.5,1794.4 L 48.8,1795.7 L 45.0,1813.1 L 41.2,1841.2 L 37.5,1846.0 L 33.8,1847.3 L 30.0,1826.5 L 26.2,1873.2 L 22.5,1879.8 L 18.8,1860.4 L 15.0,1879.2 L 11.2,1910.8 L 7.5,1933.6 L 3.8,1946.9 L 0.0,1970.6 Z" fill="black" />
  <ellipse cx="2756.8" cy="1986.3" rx="14.2" ry="39.9" fill="black" transform="rotate(8.0 2756.8 1986.3)" />
<ellipse cx="2874.5" cy="1992.0" rx="24.5" ry="68.5" fill="black" transform="rotate(6.6 2874.5 1992.0)" />
<ellipse cx="694.1" cy="1233.8" rx="19.1" ry="44.6" fill="black" transform="rotate(-3.4 694.1 1233.8)" />
<ellipse cx="1546.8" cy="1668.5" rx="15.7" ry="21.0" fill="black" transform="rotate(-1.9 1546.8 1668.5)" />
<ellipse cx="2165.5" cy="1669.6" rx="19.1" ry="21.0" fill="black" transform="rotate(-1.0 2165.5 1669.6)" />
<ellipse cx="2019.0" cy="807.6" rx="15.0" ry="41.5" fill="black" transform="rotate(-7.5 2019.0 807.6)" />
<ellipse cx="766.8" cy="1147.6" rx="17.7" ry="19.7" fill="black" transform="rotate(-8.6 766.8 1147.6)" />
<ellipse cx="1186.7" cy="1358.4" rx="24.6" ry="32.4" fill="black" transform="rotate(-8.7 1186.7 1358.4)" />
<ellipse cx="2678.7" cy="1423.6" rx="24.5" ry="66.2" fill="black" transform="rotate(-7.7 2678.7 1423.6)" />
<ellipse cx="1413.4" cy="1502.9" rx="19.8" ry="31.7" fill="black" transform="rotate(-5.1 1413.4 1502.9)" />
<ellipse cx="2305.4" cy="1726.1" rx="15.0" ry="20.2" fill="black" transform="rotate(0.4 2305.4 1726.1)" />
<ellipse cx="1016.9" cy="586.0" rx="5.0" ry="16.5" fill="black" transform="rotate(-3.2 1016.9 586.0)" />
<ellipse cx="73.0" cy="1703.9" rx="22.1" ry="68.1" fill="black" transform="rotate(-9.7 73.0 1703.9)" />
<ellipse cx="2091.9" cy="1147.4" rx="5.9" ry="17.4" fill="black" transform="rotate(-9.9 2091.9 1147.4)" />
<ellipse cx="1759.9" cy="1331.5" rx="17.7" ry="31.8" fill="black" transform="rotate(7.5 1759.9 1331.5)" />
<ellipse cx="2820.5" cy="994.4" rx="23.4" ry="32.0" fill="black" transform="rotate(5.9 2820.5 994.4)" />
<ellipse cx="813.2" cy="937.8" rx="18.0" ry="39.1" fill="black" transform="rotate(-5.9 813.2 937.8)" />
<ellipse cx="1962.2" cy="1836.6" rx="18.0" ry="33.6" fill="black" transform="rotate(-3.0 1962.2 1836.6)" />
<ellipse cx="172.2" cy="745.4" rx="13.5" ry="14.5" fill="black" transform="rotate(-9.1 172.2 745.4)" />
<ellipse cx="1128.3" cy="1170.7" rx="18.0" ry="59.4" fill="black" transform="rotate(1.4 1128.3 1170.7)" />
<ellipse cx="438.7" cy="1494.0" rx="8.6" ry="18.7" fill="black" transform="rotate(3.5 438.7 1494.0)" />
<ellipse cx="997.3" cy="1458.8" rx="13.5" ry="43.9" fill="black" transform="rotate(0.6 997.3 1458.8)" />
<ellipse cx="727.3" cy="1313.2" rx="15.1" ry="23.2" fill="black" transform="rotate(3.9 727.3 1313.2)" />
<ellipse cx="1532.2" cy="1694.3" rx="17.9" ry="23.6" fill="black" transform="rotate(4.1 1532.2 1694.3)" />
<ellipse cx="1771.1" cy="2203.1" rx="14.3" ry="30.0" fill="black" transform="rotate(-1.0 1771.1 2203.1)" />
<ellipse cx="1.8" cy="1952.2" rx="17.6" ry="52.9" fill="black" transform="rotate(-0.8 1.8 1952.2)" />
<ellipse cx="2840.8" cy="1724.7" rx="17.7" ry="32.2" fill="black" transform="rotate(-6.9 2840.8 1724.7)" />
<ellipse cx="371.8" cy="1545.4" rx="20.1" ry="55.9" fill="black" transform="rotate(5.2 371.8 1545.4)" />
<ellipse cx="2011.0" cy="1998.4" rx="18.0" ry="19.7" fill="black" transform="rotate(-1.2 2011.0 1998.4)" />
<ellipse cx="902.0" cy="1114.9" rx="13.0" ry="44.5" fill="black" transform="rotate(-6.0 902.0 1114.9)" />
<ellipse cx="1462.6" cy="1692.5" rx="22.1" ry="73.5" fill="black" transform="rotate(-2.2 1462.6 1692.5)" />
<ellipse cx="165.6" cy="1492.1" rx="22.3" ry="77.9" fill="black" transform="rotate(-0.4 165.6 1492.1)" />
<ellipse cx="1904.4" cy="2139.7" rx="16.8" ry="44.5" fill="black" transform="rotate(-8.8 1904.4 2139.7)" />
<ellipse cx="23.7" cy="1566.9" rx="21.4" ry="53.9" fill="black" transform="rotate(-7.1 23.7 1566.9)" />
<ellipse cx="1169.7" cy="1707.0" rx="13.8" ry="42.6" fill="black" transform="rotate(-3.5 1169.7 1707.0)" />
<ellipse cx="1951.3" cy="1759.4" rx="13.1" ry="31.8" fill="black" transform="rotate(-9.6 1951.3 1759.4)" />
<ellipse cx="2055.8" cy="1927.8" rx="19.4" ry="46.4" fill="black" transform="rotate(9.9 2055.8 1927.8)" />
<ellipse cx="2266.1" cy="1380.2" rx="11.6" ry="12.3" fill="black" transform="rotate(-6.1 2266.1 1380.2)" />
<ellipse cx="1444.6" cy="1544.6" rx="20.1" ry="33.4" fill="black" transform="rotate(-5.8 1444.6 1544.6)" />
<ellipse cx="2581.6" cy="2010.5" rx="7.0" ry="10.1" fill="black" transform="rotate(2.3 2581.6 2010.5)" />
<ellipse cx="657.3" cy="592.1" rx="5.9" ry="8.0" fill="black" transform="rotate(-6.7 657.3 592.1)" />
<ellipse cx="1588.7" cy="1287.5" rx="24.2" ry="71.8" fill="black" transform="rotate(-0.6 1588.7 1287.5)" />
<ellipse cx="2156.9" cy="2189.6" rx="19.1" ry="55.4" fill="black" transform="rotate(-0.5 2156.9 2189.6)" />
<ellipse cx="2671.1" cy="854.6" rx="4.9" ry="14.3" fill="black" transform="rotate(-8.9 2671.1 854.6)" />
<ellipse cx="1899.7" cy="1417.0" rx="11.3" ry="18.0" fill="black" transform="rotate(3.4 1899.7 1417.0)" />
<ellipse cx="328.4" cy="1654.2" rx="18.8" ry="38.4" fill="black" transform="rotate(4.4 328.4 1654.2)" />
<ellipse cx="1996.1" cy="1819.2" rx="5.3" ry="8.9" fill="black" transform="rotate(-0.1 1996.1 1819.2)" />
<ellipse cx="2815.4" cy="1971.8" rx="16.6" ry="45.8" fill="black" transform="rotate(-2.6 2815.4 1971.8)" />
<ellipse cx="1506.0" cy="1541.5" rx="17.6" ry="53.3" fill="black" transform="rotate(8.5 1506.0 1541.5)" />
<ellipse cx="1423.7" cy="1417.0" rx="19.8" ry="48.6" fill="black" transform="rotate(-4.6 1423.7 1417.0)" />
<ellipse cx="1098.6" cy="1711.3" rx="8.4" ry="23.7" fill="black" transform="rotate(5.0 1098.6 1711.3)" />
<ellipse cx="235.1" cy="1392.8" rx="11.1" ry="31.3" fill="black" transform="rotate(0.2 235.1 1392.8)" />
<ellipse cx="131.6" cy="1421.2" rx="7.3" ry="8.0" fill="black" transform="rotate(7.9 131.6 1421.2)" />
<ellipse cx="237.6" cy="1142.7" rx="19.2" ry="49.8" fill="black" transform="rotate(-9.5 237.6 1142.7)" />
<ellipse cx="2020.0" cy="2043.6" rx="13.1" ry="27.9" fill="black" transform="rotate(-1.5 2020.0 2043.6)" />
<ellipse cx="302.5" cy="1329.7" rx="18.6" ry="50.2" fill="black" transform="rotate(9.2 302.5 1329.7)" />
<ellipse cx="2908.7" cy="2038.4" rx="7.5" ry="14.8" fill="black" transform="rotate(2.9 2908.7 2038.4)" />
<ellipse cx="200.6" cy="1545.9" rx="24.0" ry="79.7" fill="black" transform="rotate(2.4 200.6 1545.9)" />
<ellipse cx="274.7" cy="1425.0" rx="21.9" ry="59.3" fill="black" transform="rotate(-9.4 274.7 1425.0)" />
<ellipse cx="1470.2" cy="1719.0" rx="12.2" ry="36.0" fill="black" transform="rotate(-5.9 1470.2 1719.0)" />
<ellipse cx="2732.1" cy="1813.1" rx="10.3" ry="28.9" fill="black" transform="rotate(-0.2 2732.1 1813.1)" />
<ellipse cx="704.6" cy="1002.8" rx="4.4" ry="6.3" fill="black" transform="rotate(2.2 704.6 1002.8)" />
<ellipse cx="2643.0" cy="1944.7" rx="4.5" ry="9.6" fill="black" transform="rotate(-0.4 2643.0 1944.7)" />
<ellipse cx="803.8" cy="476.1" rx="20.7" ry="52.4" fill="black" transform="rotate(-7.8 803.8 476.1)" />
<ellipse cx="2630.0" cy="2062.8" rx="19.3" ry="38.9" fill="black" transform="rotate(6.5 2630.0 2062.8)" />
<ellipse cx="1518.2" cy="1116.5" rx="12.9" ry="20.4" fill="black" transform="rotate(6.7 1518.2 1116.5)" />
<ellipse cx="1765.8" cy="2041.9" rx="21.2" ry="49.9" fill="black" transform="rotate(1.5 1765.8 2041.9)" />
<ellipse cx="391.0" cy="1300.3" rx="21.6" ry="73.3" fill="black" transform="rotate(-0.9 391.0 1300.3)" />
<ellipse cx="227.6" cy="1037.6" rx="12.5" ry="31.0" fill="black" transform="rotate(-2.7 227.6 1037.6)" />
<ellipse cx="2936.9" cy="2242.1" rx="14.6" ry="40.6" fill="black" transform="rotate(2.2 2936.9 2242.1)" />
<ellipse cx="1437.2" cy="1230.0" rx="17.4" ry="55.4" fill="black" transform="rotate(6.3 1437.2 1230.0)" />
<ellipse cx="1993.2" cy="1946.0" rx="6.4" ry="12.2" fill="black" transform="rotate(6.0 1993.2 1946.0)" />
<ellipse cx="318.1" cy="1603.1" rx="4.8" ry="13.4" fill="black" transform="rotate(-0.8 318.1 1603.1)" />
<ellipse cx="121.5" cy="966.6" rx="24.0" ry="27.6" fill="black" transform="rotate(-5.3 121.5 966.6)" />
<ellipse cx="1689.7" cy="1283.1" rx="11.8" ry="18.5" fill="black" transform="rotate(-7.7 1689.7 1283.1)" />
<ellipse cx="2908.4" cy="2022.9" rx="19.8" ry="67.9" fill="black" transform="rotate(7.4 2908.4 2022.9)" />
<ellipse cx="2264.3" cy="1877.1" rx="11.2" ry="32.5" fill="black" transform="rotate(7.8 2264.3 1877.1)" />
<ellipse cx="286.2" cy="1175.3" rx="15.5" ry="29.0" fill="black" transform="rotate(1.0 286.2 1175.3)" />
<ellipse cx="1003.8" cy="1421.7" rx="21.1" ry="51.0" fill="black" transform="rotate(-1.0 1003.8 1421.7)" />
<ellipse cx="2382.0" cy="2400.6" rx="6.6" ry="11.1" fill="black" transform="rotate(4.2 2382.0 2400.6)" />
<ellipse cx="480.6" cy="1036.6" rx="21.7" ry="40.6" fill="black" transform="rotate(-7.0 480.6 1036.6)" />
<ellipse cx="878.0" cy="1361.2" rx="11.9" ry="30.2" fill="black" transform="rotate(1.3 878.0 1361.2)" />
<ellipse cx="746.6" cy="1361.6" rx="19.8" ry="37.0" fill="black" transform="rotate(5.7 746.6 1361.6)" />
<ellipse cx="763.9" cy="1359.7" rx="18.1" ry="23.8" fill="black" transform="rotate(5.6 763.9 1359.7)" />
<ellipse cx="419.3" cy="1788.5" rx="7.3" ry="8.8" fill="black" transform="rotate(0.5 419.3 1788.5)" />
<ellipse cx="137.4" cy="1603.3" rx="8.6" ry="24.5" fill="black" transform="rotate(-8.2 137.4 1603.3)" />
<ellipse cx="173.4" cy="1288.9" rx="16.4" ry="46.7" fill="black" transform="rotate(-4.1 173.4 1288.9)" />
<ellipse cx="266.4" cy="1170.7" rx="7.0" ry="7.6" fill="black" transform="rotate(-9.7 266.4 1170.7)" />
<ellipse cx="2731.8" cy="2105.5" rx="4.3" ry="13.2" fill="black" transform="rotate(-6.3 2731.8 2105.5)" />
<ellipse cx="327.7" cy="1602.2" rx="21.0" ry="61.5" fill="black" transform="rotate(5.7 327.7 1602.2)" />
<ellipse cx="2460.6" cy="1472.2" rx="7.2" ry="14.5" fill="black" transform="rotate(-5.7 2460.6 1472.2)" />
<ellipse cx="1132.0" cy="933.1" rx="18.3" ry="19.9" fill="black" transform="rotate(-6.9 1132.0 933.1)" />
<ellipse cx="422.1" cy="1642.1" rx="22.2" ry="23.4" fill="black" transform="rotate(5.1 422.1 1642.1)" />
<ellipse cx="593.8" cy="1294.5" rx="10.0" ry="33.7" fill="black" transform="rotate(-6.1 593.8 1294.5)" />
<ellipse cx="2879.9" cy="1947.5" rx="15.4" ry="34.0" fill="black" transform="rotate(9.8 2879.9 1947.5)" />
<ellipse cx="687.1" cy="1304.2" rx="12.0" ry="29.5" fill="black" transform="rotate(3.6 687.1 1304.2)" />
<ellipse cx="415.1" cy="402.8" rx="22.3" ry="25.6" fill="black" transform="rotate(-3.1 415.1 402.8)" />
<ellipse cx="1395.3" cy="1326.1" rx="7.3" ry="23.9" fill="black" transform="rotate(0.4 1395.3 1326.1)" />
<ellipse cx="5.1" cy="1826.5" rx="10.0" ry="29.0" fill="black" transform="rotate(9.2 5.1 1826.5)" />
<ellipse cx="1017.9" cy="1639.1" rx="4.7" ry="14.3" fill="black" transform="rotate(0.9 1017.9 1639.1)" />
<ellipse cx="798.0" cy="912.0" rx="23.7" ry="25.7" fill="black" transform="rotate(-1.1 798.0 912.0)" />
<ellipse cx="997.8" cy="709.6" rx="16.5" ry="39.9" fill="black" transform="rotate(8.1 997.8 709.6)" />
<ellipse cx="571.2" cy="1007.4" rx="11.3" ry="12.9" fill="black" transform="rotate(-5.1 571.2 1007.4)" />
<ellipse cx="670.1" cy="641.8" rx="9.7" ry="33.2" fill="black" transform="rotate(-3.2 670.1 641.8)" />
<ellipse cx="2626.3" cy="2046.6" rx="16.1" ry="31.4" fill="black" transform="rotate(-6.4 2626.3 2046.6)" />
<ellipse cx="1256.6" cy="1689.2" rx="15.4" ry="34.2" fill="black" transform="rotate(3.9 1256.6 1689.2)" />
<ellipse cx="476.6" cy="1664.6" rx="4.6" ry="5.2" fill="black" transform="rotate(-9.4 476.6 1664.6)" />
<ellipse cx="1042.6" cy="1237.6" rx="15.8" ry="47.9" fill="black" transform="rotate(8.2 1042.6 1237.6)" />
<ellipse cx="1697.8" cy="1992.1" rx="19.4" ry="30.0" fill="black" transform="rotate(-6.7 1697.8 1992.1)" />
<ellipse cx="2124.2" cy="1991.3" rx="18.1" ry="21.3" fill="black" transform="rotate(4.6 2124.2 1991.3)" />
<ellipse cx="91.9" cy="1713.7" rx="8.2" ry="17.1" fill="black" transform="rotate(9.4 91.9 1713.7)" />
<ellipse cx="1972.5" cy="1980.4" rx="7.6" ry="22.1" fill="black" transform="rotate(7.8 1972.5 1980.4)" />
<ellipse cx="196.9" cy="1549.4" rx="13.4" ry="27.5" fill="black" transform="rotate(2.8 196.9 1549.4)" />
<ellipse cx="2409.1" cy="2489.9" rx="12.7" ry="29.0" fill="black" transform="rotate(4.7 2409.1 2489.9)" />
<ellipse cx="2775.0" cy="2073.3" rx="7.7" ry="17.5" fill="black" transform="rotate(-8.1 2775.0 2073.3)" />
<ellipse cx="2918.4" cy="2082.3" rx="22.5" ry="65.9" fill="black" transform="rotate(5.2 2918.4 2082.3)" />
<ellipse cx="823.6" cy="1028.2" rx="4.5" ry="15.0" fill="black" transform="rotate(-9.7 823.6 1028.2)" />
<ellipse cx="2782.5" cy="1864.9" rx="16.1" ry="20.1" fill="black" transform="rotate(-7.9 2782.5 1864.9)" />
<ellipse cx="210.4" cy="1282.7" rx="21.4" ry="54.6" fill="black" transform="rotate(9.0 210.4 1282.7)" />
<ellipse cx="264.5" cy="1412.2" rx="20.1" ry="25.0" fill="black" transform="rotate(-8.6 264.5 1412.2)" />
<ellipse cx="804.1" cy="614.5" rx="23.3" ry="79.6" fill="black" transform="rotate(9.6 804.1 614.5)" />
<ellipse cx="68.9" cy="1043.7" rx="8.7" ry="19.5" fill="black" transform="rotate(-5.1 68.9 1043.7)" />
<ellipse cx="424.9" cy="1411.3" rx="24.5" ry="47.7" fill="black" transform="rotate(-0.4 424.9 1411.3)" />
<ellipse cx="2127.6" cy="2108.4" rx="8.9" ry="20.1" fill="black" transform="rotate(9.7 2127.6 2108.4)" />
<ellipse cx="1312.8" cy="514.0" rx="21.3" ry="41.8" fill="black" transform="rotate(3.6 1312.8 514.0)" />
<ellipse cx="2659.7" cy="1570.0" rx="11.5" ry="13.4" fill="black" transform="rotate(-4.5 2659.7 1570.0)" />
<ellipse cx="2119.9" cy="1710.9" rx="6.8" ry="8.3" fill="black" transform="rotate(-0.1 2119.9 1710.9)" />
<ellipse cx="695.9" cy="1046.4" rx="6.8" ry="12.6" fill="black" transform="rotate(6.4 695.9 1046.4)" />
<ellipse cx="521.4" cy="1582.9" rx="15.0" ry="17.7" fill="black" transform="rotate(2.7 521.4 1582.9)" />
<ellipse cx="904.8" cy="842.8" rx="11.0" ry="14.1" fill="black" transform="rotate(5.6 904.8 842.8)" />
<ellipse cx="2033.0" cy="1732.0" rx="16.1" ry="20.9" fill="black" transform="rotate(-3.9 2033.0 1732.0)" />
<ellipse cx="2493.9" cy="2310.3" rx="16.4" ry="38.9" fill="black" transform="rotate(-5.0 2493.9 2310.3)" />
<ellipse cx="1942.0" cy="1768.8" rx="6.8" ry="9.0" fill="black" transform="rotate(2.5 1942.0 1768.8)" />
<ellipse cx="2060.2" cy="1152.6" rx="13.7" ry="15.2" fill="black" transform="rotate(0.7 2060.2 1152.6)" />
<ellipse cx="1429.9" cy="1225.5" rx="23.5" ry="27.5" fill="black" transform="rotate(-9.6 1429.9 1225.5)" />
<ellipse cx="315.0" cy="1693.7" rx="6.2" ry="8.3" fill="black" transform="rotate(5.6 315.0 1693.7)" />
<ellipse cx="1856.4" cy="2148.5" rx="13.9" ry="41.1" fill="black" transform="rotate(-0.6 1856.4 2148.5)" />
<ellipse cx="725.6" cy="1057.8" rx="17.3" ry="58.5" fill="black" transform="rotate(-2.1 725.6 1057.8)" />
<ellipse cx="2674.9" cy="1976.2" rx="19.6" ry="43.2" fill="black" transform="rotate(-0.2 2674.9 1976.2)" />
<ellipse cx="228.9" cy="1331.5" rx="6.7" ry="9.5" fill="black" transform="rotate(-3.3 228.9 1331.5)" />
<ellipse cx="2705.3" cy="2060.2" rx="19.3" ry="24.5" fill="black" transform="rotate(7.9 2705.3 2060.2)" />
<ellipse cx="2290.9" cy="2012.8" rx="21.6" ry="37.1" fill="black" transform="rotate(-1.0 2290.9 2012.8)" />
<ellipse cx="2951.6" cy="1649.1" rx="17.0" ry="21.0" fill="black" transform="rotate(-2.6 2951.6 1649.1)" />
<ellipse cx="1584.4" cy="1153.1" rx="14.8" ry="38.0" fill="black" transform="rotate(-8.2 1584.4 1153.1)" />
<ellipse cx="13.5" cy="861.1" rx="12.1" ry="38.6" fill="black" transform="rotate(3.2 13.5 861.1)" />
<ellipse cx="2747.4" cy="2007.8" rx="21.1" ry="22.2" fill="black" transform="rotate(-8.4 2747.4 2007.8)" />
<ellipse cx="480.8" cy="1706.5" rx="11.0" ry="11.1" fill="black" transform="rotate(6.7 480.8 1706.5)" />
<ellipse cx="1055.0" cy="461.6" rx="6.8" ry="9.6" fill="black" transform="rotate(1.0 1055.0 461.6)" />
<ellipse cx="1109.5" cy="1321.3" rx="13.7" ry="42.4" fill="black" transform="rotate(9.7 1109.5 1321.3)" />
<ellipse cx="811.8" cy="1357.0" rx="24.1" ry="81.4" fill="black" transform="rotate(9.8 811.8 1357.0)" />
<ellipse cx="2728.1" cy="1589.9" rx="23.5" ry="53.9" fill="black" transform="rotate(-5.0 2728.1 1589.9)" />
<ellipse cx="104.9" cy="1384.6" rx="23.7" ry="38.5" fill="black" transform="rotate(5.2 104.9 1384.6)" />
<ellipse cx="2653.9" cy="1568.3" rx="24.0" ry="27.4" fill="black" transform="rotate(-5.2 2653.9 1568.3)" />
<ellipse cx="1009.0" cy="1521.1" rx="19.2" ry="47.3" fill="black" transform="rotate(0.5 1009.0 1521.1)" />
<ellipse cx="2990.6" cy="1267.5" rx="7.7" ry="9.6" fill="black" transform="rotate(-2.7 2990.6 1267.5)" />
<ellipse cx="533.6" cy="737.8" rx="14.8" ry="32.0" fill="black" transform="rotate(-4.5 533.6 737.8)" />
<ellipse cx="974.2" cy="51.7" rx="16.0" ry="16.8" fill="black" transform="rotate(-0.2 974.2 51.7)" />
<ellipse cx="102.5" cy="1677.8" rx="8.9" ry="27.6" fill="black" transform="rotate(6.2 102.5 1677.8)" />
<ellipse cx="453.4" cy="1539.5" rx="15.4" ry="20.5" fill="black" transform="rotate(-8.0 453.4 1539.5)" />
<ellipse cx="299.5" cy="1575.3" rx="14.4" ry="23.6" fill="black" transform="rotate(10.0 299.5 1575.3)" />
<ellipse cx="1401.7" cy="1405.9" rx="21.8" ry="44.5" fill="black" transform="rotate(9.9 1401.7 1405.9)" />
<ellipse cx="1233.8" cy="1534.4" rx="22.8" ry="48.9" fill="black" transform="rotate(-3.9 1233.8 1534.4)" />
<ellipse cx="88.2" cy="1342.3" rx="14.5" ry="34.3" fill="black" transform="rotate(2.5 88.2 1342.3)" />
<ellipse cx="17.5" cy="1403.2" rx="18.9" ry="35.6" fill="black" transform="rotate(-4.2 17.5 1403.2)" />
<ellipse cx="2219.0" cy="1979.3" rx="24.7" ry="26.1" fill="black" transform="rotate(-8.2 2219.0 1979.3)" />
<ellipse cx="963.8" cy="1515.2" rx="9.5" ry="23.2" fill="black" transform="rotate(-3.0 963.8 1515.2)" />
<ellipse cx="1185.4" cy="1410.3" rx="11.9" ry="31.5" fill="black" transform="rotate(-5.1 1185.4 1410.3)" />
<ellipse cx="559.6" cy="1387.9" rx="10.2" ry="24.2" fill="black" transform="rotate(-1.9 559.6 1387.9)" />
<ellipse cx="828.4" cy="1193.8" rx="17.7" ry="22.0" fill="black" transform="rotate(7.4 828.4 1193.8)" />
<ellipse cx="2421.7" cy="2142.3" rx="23.3" ry="78.3" fill="black" transform="rotate(9.4 2421.7 2142.3)" />
<ellipse cx="2254.3" cy="2250.6" rx="6.0" ry="8.6" fill="black" transform="rotate(-3.0 2254.3 2250.6)" />
<ellipse cx="1648.2" cy="1975.1" rx="12.9" ry="30.6" fill="black" transform="rotate(-0.9 1648.2 1975.1)" />
<ellipse cx="621.3" cy="1538.5" rx="17.0" ry="24.6" fill="black" transform="rotate(-9.8 621.3 1538.5)" />
<ellipse cx="95.8" cy="1716.7" rx="6.8" ry="9.6" fill="black" transform="rotate(4.0 95.8 1716.7)" />
<ellipse cx="2942.6" cy="1965.6" rx="21.8" ry="32.0" fill="black" transform="rotate(6.6 2942.6 1965.6)" />
<ellipse cx="1468.3" cy="1246.5" rx="5.7" ry="19.7" fill="black" transform="rotate(-1.8 1468.3 1246.5)" />
<ellipse cx="1871.4" cy="2041.2" rx="22.5" ry="37.0" fill="black" transform="rotate(-6.5 1871.4 2041.2)" />
<ellipse cx="2740.1" cy="1861.6" rx="16.4" ry="23.3" fill="black" transform="rotate(3.4 2740.1 1861.6)" />
<ellipse cx="240.1" cy="614.8" rx="5.6" ry="15.2" fill="black" transform="rotate(-9.4 240.1 614.8)" />
<ellipse cx="2558.3" cy="2189.1" rx="4.1" ry="4.5" fill="black" transform="rotate(8.0 2558.3 2189.1)" />
<ellipse cx="1481.1" cy="1051.4" rx="24.5" ry="50.6" fill="black" transform="rotate(-7.1 1481.1 1051.4)" />
<ellipse cx="556.0" cy="1299.5" rx="17.3" ry="21.5" fill="black" transform="rotate(-4.8 556.0 1299.5)" />
<ellipse cx="999.6" cy="869.2" rx="18.3" ry="18.4" fill="black" transform="rotate(0.4 999.6 869.2)" />
<ellipse cx="1061.4" cy="1729.4" rx="14.0" ry="23.2" fill="black" transform="rotate(8.9 1061.4 1729.4)" />
<ellipse cx="1653.5" cy="1395.7" rx="17.8" ry="35.2" fill="black" transform="rotate(-5.9 1653.5 1395.7)" />
<ellipse cx="95.1" cy="1550.4" rx="24.2" ry="78.9" fill="black" transform="rotate(-4.7 95.1 1550.4)" />
<ellipse cx="1025.0" cy="1511.6" rx="10.1" ry="30.8" fill="black" transform="rotate(-8.1 1025.0 1511.6)" />
<ellipse cx="1148.1" cy="1723.6" rx="23.3" ry="24.9" fill="black" transform="rotate(2.0 1148.1 1723.6)" />
<ellipse cx="2451.0" cy="1682.2" rx="18.2" ry="49.3" fill="black" transform="rotate(-5.7 2451.0 1682.2)" />
<ellipse cx="719.1" cy="1284.0" rx="17.3" ry="42.9" fill="black" transform="rotate(2.0 719.1 1284.0)" />
<ellipse cx="2564.5" cy="2013.7" rx="10.7" ry="18.9" fill="black" transform="rotate(7.3 2564.5 2013.7)" />
<ellipse cx="245.3" cy="778.6" rx="7.7" ry="16.9" fill="black" transform="rotate(3.7 245.3 778.6)" />
<ellipse cx="2642.6" cy="1812.4" rx="18.9" ry="47.5" fill="black" transform="rotate(-5.5 2642.6 1812.4)" />
<ellipse cx="204.5" cy="1518.7" rx="9.9" ry="32.3" fill="black" transform="rotate(2.7 204.5 1518.7)" />
<ellipse cx="577.4" cy="819.4" rx="10.7" ry="36.2" fill="black" transform="rotate(9.9 577.4 819.4)" />
<ellipse cx="2845.6" cy="1868.5" rx="16.1" ry="54.6" fill="black" transform="rotate(-6.4 2845.6 1868.5)" />
<ellipse cx="153.6" cy="1265.2" rx="16.9" ry="19.3" fill="black" transform="rotate(-1.1 153.6 1265.2)" />
<ellipse cx="169.5" cy="1438.6" rx="17.3" ry="28.4" fill="black" transform="rotate(3.4 169.5 1438.6)" />
<ellipse cx="1477.5" cy="1471.3" rx="17.9" ry="62.4" fill="black" transform="rotate(-7.0 1477.5 1471.3)" />
<ellipse cx="855.4" cy="1009.5" rx="13.0" ry="43.3" fill="black" transform="rotate(3.8 855.4 1009.5)" />
<ellipse cx="2392.4" cy="1775.9" rx="21.4" ry="73.8" fill="black" transform="rotate(5.5 2392.4 1775.9)" />
<ellipse cx="2456.2" cy="2172.9" rx="18.6" ry="20.4" fill="black" transform="rotate(5.4 2456.2 2172.9)" />
<ellipse cx="538.6" cy="573.8" rx="17.1" ry="42.6" fill="black" transform="rotate(5.1 538.6 573.8)" />
<ellipse cx="2065.2" cy="1489.4" rx="23.7" ry="74.2" fill="black" transform="rotate(4.3 2065.2 1489.4)" />
<ellipse cx="825.2" cy="1269.1" rx="21.8" ry="61.4" fill="black" transform="rotate(-9.6 825.2 1269.1)" />
<ellipse cx="841.3" cy="869.1" rx="17.9" ry="52.5" fill="black" transform="rotate(3.4 841.3 869.1)" />
<ellipse cx="1837.1" cy="2062.8" rx="4.7" ry="6.0" fill="black" transform="rotate(-9.4 1837.1 2062.8)" />
<ellipse cx="1535.7" cy="1653.4" rx="14.7" ry="38.7" fill="black" transform="rotate(-3.2 1535.7 1653.4)" />
<ellipse cx="918.6" cy="1067.4" rx="8.4" ry="17.8" fill="black" transform="rotate(3.8 918.6 1067.4)" />
<ellipse cx="2873.2" cy="1955.5" rx="10.9" ry="28.4" fill="black" transform="rotate(-1.4 2873.2 1955.5)" />
<ellipse cx="847.4" cy="1130.1" rx="17.4" ry="20.6" fill="black" transform="rotate(-0.5 847.4 1130.1)" />
<ellipse cx="1351.7" cy="683.5" rx="20.7" ry="37.4" fill="black" transform="rotate(0.4 1351.7 683.5)" />
<ellipse cx="30.2" cy="1738.9" rx="24.0" ry="25.9" fill="black" transform="rotate(-0.7 30.2 1738.9)" />
<ellipse cx="2899.9" cy="2004.9" rx="22.1" ry="56.9" fill="black" transform="rotate(5.3 2899.9 2004.9)" />
<ellipse cx="2413.8" cy="2392.3" rx="14.7" ry="32.0" fill="black" transform="rotate(4.7 2413.8 2392.3)" />
<ellipse cx="2537.6" cy="2222.2" rx="16.0" ry="45.9" fill="black" transform="rotate(-7.6 2537.6 2222.2)" />
<ellipse cx="1258.9" cy="1124.1" rx="20.4" ry="23.5" fill="black" transform="rotate(4.0 1258.9 1124.1)" />
<ellipse cx="838.4" cy="1013.6" rx="16.7" ry="21.4" fill="black" transform="rotate(1.8 838.4 1013.6)" />
<ellipse cx="469.8" cy="1578.7" rx="12.7" ry="24.2" fill="black" transform="rotate(-1.4 469.8 1578.7)" />
<ellipse cx="651.8" cy="1375.0" rx="8.5" ry="14.5" fill="black" transform="rotate(-8.6 651.8 1375.0)" />
<ellipse cx="1816.1" cy="1990.2" rx="22.0" ry="61.9" fill="black" transform="rotate(1.9 1816.1 1990.2)" />
<ellipse cx="1699.7" cy="2123.7" rx="12.5" ry="17.0" fill="black" transform="rotate(-4.9 1699.7 2123.7)" />
<ellipse cx="587.8" cy="1530.9" rx="17.2" ry="32.6" fill="black" transform="rotate(6.3 587.8 1530.9)" />
<ellipse cx="1446.2" cy="772.4" rx="9.5" ry="10.3" fill="black" transform="rotate(3.5 1446.2 772.4)" />
<ellipse cx="1190.2" cy="1322.5" rx="19.0" ry="61.1" fill="black" transform="rotate(-7.5 1190.2 1322.5)" />
<ellipse cx="2809.2" cy="2068.4" rx="9.8" ry="29.2" fill="black" transform="rotate(-2.4 2809.2 2068.4)" />
<ellipse cx="1210.6" cy="1580.9" rx="13.3" ry="39.9" fill="black" transform="rotate(3.0 1210.6 1580.9)" />
<ellipse cx="2358.0" cy="2261.1" rx="9.6" ry="15.6" fill="black" transform="rotate(-4.5 2358.0 2261.1)" />
<ellipse cx="891.2" cy="732.1" rx="21.5" ry="63.9" fill="black" transform="rotate(4.7 891.2 732.1)" />
<ellipse cx="1414.7" cy="408.2" rx="16.7" ry="25.0" fill="black" transform="rotate(7.3 1414.7 408.2)" />
<ellipse cx="110.9" cy="282.2" rx="10.0" ry="14.9" fill="black" transform="rotate(6.1 110.9 282.2)" />
<ellipse cx="1382.0" cy="570.0" rx="19.4" ry="65.8" fill="black" transform="rotate(1.1 1382.0 570.0)" />
<ellipse cx="1550.6" cy="1746.4" rx="13.0" ry="24.5" fill="black" transform="rotate(9.1 1550.6 1746.4)" />
<ellipse cx="7.5" cy="1417.0" rx="18.3" ry="59.9" fill="black" transform="rotate(5.0 7.5 1417.0)" />
<ellipse cx="299.8" cy="568.8" rx="4.2" ry="10.2" fill="black" transform="rotate(1.4 299.8 568.8)" />
<ellipse cx="1621.0" cy="1806.7" rx="5.6" ry="12.5" fill="black" transform="rotate(6.9 1621.0 1806.7)" />
<ellipse cx="747.4" cy="1066.5" rx="19.5" ry="47.6" fill="black" transform="rotate(-5.2 747.4 1066.5)" />
<ellipse cx="131.4" cy="1202.8" rx="24.3" ry="71.5" fill="black" transform="rotate(-6.1 131.4 1202.8)" />
<ellipse cx="558.3" cy="984.5" rx="12.0" ry="22.7" fill="black" transform="rotate(-1.1 558.3 984.5)" />
<ellipse cx="2610.1" cy="1378.8" rx="17.0" ry="56.3" fill="black" transform="rotate(3.3 2610.1 1378.8)" />
<ellipse cx="568.2" cy="1274.1" rx="24.0" ry="56.5" fill="black" transform="rotate(-8.6 568.2 1274.1)" />
<ellipse cx="2033.8" cy="1832.7" rx="22.4" ry="44.3" fill="black" transform="rotate(7.4 2033.8 1832.7)" />
<ellipse cx="810.0" cy="741.7" rx="20.8" ry="62.1" fill="black" transform="rotate(-1.6 810.0 741.7)" />
<ellipse cx="196.3" cy="1628.2" rx="16.7" ry="29.0" fill="black" transform="rotate(5.1 196.3 1628.2)" />
<ellipse cx="2739.2" cy="1752.7" rx="11.3" ry="18.2" fill="black" transform="rotate(3.3 2739.2 1752.7)" />
<ellipse cx="1512.5" cy="1621.1" rx="21.5" ry="35.7" fill="black" transform="rotate(7.9 1512.5 1621.1)" />
<ellipse cx="2420.0" cy="2174.0" rx="21.1" ry="65.2" fill="black" transform="rotate(7.1 2420.0 2174.0)" />

</svg>